HIERARCHY
ROOT Hips
{
 OFFSET 0.000000 0.000000 0.000000
 CHANNELS 6 Xposition Yposition Zposition Yrotation Xrotation Zrotation
 JOINT Chest
 {
  OFFSET 0.000000 9.585900 0.002600
  CHANNELS 3 Yrotation Xrotation Zrotation
  JOINT Chest2
  {
   OFFSET 0.000000 9.601200 -0.005300
   CHANNELS 3 Yrotation Xrotation Zrotation
   JOINT Chest3
   {
    OFFSET 0.000000 9.561800 0.000000
    CHANNELS 3 Yrotation Xrotation Zrotation
    JOINT Chest4
    {
     OFFSET 0.000000 9.552100 0.000000
     CHANNELS 3 Yrotation Xrotation Zrotation
     JOINT Neck
     {
      OFFSET 0.000000 14.453000 0.000000
      CHANNELS 3 Yrotation Xrotation Zrotation
      JOINT Head
      {
       OFFSET 0.000000 8.936500 -0.011300
       CHANNELS 3 Yrotation Xrotation Zrotation
       End Site
       {
        OFFSET 0.000000 17.073600 -0.006000
       }
      }
     }
     JOINT RightCollar
     {
      OFFSET -2.921100 9.558500 0.000000
      CHANNELS 3 Yrotation Xrotation Zrotation
      JOINT RightShoulder
      {
       OFFSET -13.519700 0.000000 0.000000
       CHANNELS 3 Yrotation Xrotation Zrotation
       JOINT RightElbow
       {
        OFFSET 0.000000 -29.696600 0.000000
        CHANNELS 3 Yrotation Xrotation Zrotation
        JOINT RightWrist
        {
         OFFSET 0.000000 -24.004700 0.000000
         CHANNELS 3 Yrotation Xrotation Zrotation
         End Site
         {
          OFFSET 0.000000 -17.728500 0.000000
         }
        }
       }
      }
     }
     JOINT LeftCollar
     {
      OFFSET 2.921100 9.558500 0.000000
      CHANNELS 3 Yrotation Xrotation Zrotation
      JOINT LeftShoulder
      {
       OFFSET 13.519700 0.000000 0.000000
       CHANNELS 3 Yrotation Xrotation Zrotation
       JOINT LeftElbow
       {
        OFFSET 0.000000 -29.696600 0.000000
        CHANNELS 3 Yrotation Xrotation Zrotation
        JOINT LeftWrist
        {
         OFFSET 0.000000 -24.004700 0.000000
         CHANNELS 3 Yrotation Xrotation Zrotation
         End Site
         {
          OFFSET 0.000000 -17.728500 0.000000
         }
        }
       }
      }
     }
    }
   }
  }
 }
 JOINT RightHip
 {
  OFFSET -7.771700 -0.012900 -0.001300
  CHANNELS 3 Yrotation Xrotation Zrotation
  JOINT RightKnee
  {
   OFFSET 0.000000 -40.869800 0.001200
   CHANNELS 3 Yrotation Xrotation Zrotation
   JOINT RightAnkle
   {
    OFFSET 0.000000 -39.717900 0.002100
    CHANNELS 3 Yrotation Xrotation Zrotation
    JOINT RightToe
    {
     OFFSET 0.000000 -4.965400 11.033500
     CHANNELS 3 Yrotation Xrotation Zrotation
     End Site
     {
      OFFSET 0.000000 -1.423100 5.872300
     }
    }
   }
  }
 }
 JOINT LeftHip
 {
  OFFSET 7.771700 -0.012900 -0.001300
  CHANNELS 3 Yrotation Xrotation Zrotation
  JOINT LeftKnee
  {
   OFFSET 0.000000 -40.869800 0.001200
   CHANNELS 3 Yrotation Xrotation Zrotation
   JOINT LeftAnkle
   {
    OFFSET 0.000000 -39.717900 0.002100
    CHANNELS 3 Yrotation Xrotation Zrotation
    JOINT LeftToe
    {
     OFFSET 0.000000 -4.965400 11.033500
     CHANNELS 3 Yrotation Xrotation Zrotation
     End Site
     {
      OFFSET 0.000000 -1.423100 5.872300
     }
    }
   }
  }
 }
}
MOTION
Frames: 12
Frame Time: 0.008333
0.000000 85.388000 0.000000 0.000000 -5.767877 0.000000 0.000000 11.653817 0.000000 0.000000 -5.885947 0.000000 0.000000 -0.000000 0.000000 0.000000 -0.000000 0.000000 0.000000 12.528835 0.000000 0.000000 0.711642 0.000000 0.000000 -0.000000 0.000000 0.000000 0.000000 -90.000000 0.000000 -2.309062 0.000000 0.000000 2.309062 0.000000 0.000000 -0.000000 0.000000 0.000000 -0.000000 90.000000 0.000000 -2.309062 0.000000 0.000000 2.309062 0.000000 0.000000 8.520406 0.000000 0.000000 1.905762 0.000000 -0.000000 -4.658285 0.000000 0.000000 -0.000000 0.000000 0.000000 8.520406 0.000000 0.000000 1.905762 0.000000 -0.000000 -4.658285 0.000000 0.000000 -0.000000 0.000000
-4.028312 50.064967 27.712860 170.707929 -32.199839 -7.301363 -0.374179 20.530152 4.303627 -0.104525 2.700530 0.408291 -0.150301 4.323433 0.731762 -0.279781 17.519724 2.984700 3.489338 20.554419 1.111143 6.006595 2.349823 1.028511 2.074681 -2.844404 -9.176534 16.298150 -32.278475 -21.462131 146.596132 -50.088355 -151.827373 4.820462 -7.700425 -16.913253 -9.899116 1.378061 -0.937180 10.616424 -3.594515 1.581041 -96.075192 -46.690049 103.626412 2.679415 -18.462153 8.207878 -2.757571 -47.551190 14.177892 -118.390686 81.928993 -106.548872 0.437744 -15.268591 -4.653732 -0.333291 0.947831 -0.130128 -7.632292 -51.872192 20.349062 -156.996079 81.003397 -164.926413 -1.119154 -15.177797 8.722489 -0.114985 -0.442117 -0.031066
-4.026206 50.061095 27.727927 170.580527 -32.152557 -7.315421 -0.230076 20.569110 4.327672 -0.085835 2.664694 0.437946 -0.131889 4.333632 0.730531 -0.192159 17.559752 2.971694 3.415493 20.589953 1.085316 5.890996 2.457529 0.974709 1.958390 -2.920080 -9.174305 15.906540 -32.464521 -21.401764 147.062982 -49.142737 -152.534241 4.827624 -7.856871 -17.138196 -9.959487 1.374138 -0.904099 10.509126 -3.666699 1.560333 -96.255202 -46.573419 103.887818 2.690213 -18.503659 8.316286 -2.769592 -47.598491 14.288115 -118.112251 81.970332 -106.261350 0.457493 -15.245265 -4.681483 -0.342875 0.970706 -0.138898 -7.608730 -51.933995 20.454076 -157.162344 81.002644 -165.055348 -1.116902 -15.195862 8.732769 -0.125587 -0.429569 -0.056790
-4.034061 50.059995 27.734598 170.530768 -32.144004 -7.309455 -0.141957 20.622283 4.317985 -0.072282 2.657980 0.447061 -0.107521 4.346223 0.729895 -0.090766 17.582543 2.976619 3.323080 20.646121 1.042575 5.734865 2.561544 0.926085 1.864915 -2.960113 -9.184196 15.478699 -32.623536 -21.299837 147.508590 -48.200319 -153.219834 4.817481 -8.021627 -17.312241 -10.021789 1.351123 -0.869050 10.351461 -3.748360 1.542471 -96.445460 -46.479490 104.138966 2.723211 -18.546405 8.404220 -2.785370 -47.600892 14.313705 -118.053860 82.008056 -106.215732 0.466880 -15.244062 -4.687740 -0.355366 0.980927 -0.150499 -7.550841 -51.960238 20.410312 -157.441889 81.013814 -165.276235 -1.096351 -15.201091 8.716737 -0.133999 -0.425891 -0.074709
-4.027910 50.055768 27.752067 170.366765 -32.098718 -7.337858 0.092987 20.607650 4.426022 -0.053560 2.667089 0.447060 -0.076770 4.360399 0.730162 0.037175 17.607198 2.987910 3.207237 20.704392 0.999993 5.536142 2.668881 0.884458 1.781254 -2.988721 -9.189547 15.027856 -32.752507 -21.164291 147.927509 -47.266292 -153.890128 4.801135 -8.210412 -17.444156 -10.116683 1.309821 -0.809662 10.169754 -3.856819 1.524517 -96.650124 -46.444140 104.371566 2.781207 -18.597270 8.446091 -2.830844 -47.643172 14.476182 -117.777992 82.048961 -105.915216 0.490703 -15.246374 -4.731099 -0.342694 1.028400 -0.169724 -7.554144 -52.020787 20.559635 -157.632471 81.007024 -165.418181 -1.037027 -15.221524 8.705750 -0.176039 -0.420822 -0.107421
-4.026352 50.053359 27.763075 170.233417 -32.087263 -7.344064 0.318012 20.627613 4.503381 -0.031230 2.676245 0.447815 -0.040258 4.374542 0.731834 0.189288 17.630519 3.007552 3.067703 20.764907 0.956682 5.294571 2.780023 0.848254 1.705474 -3.007246 -9.192139 14.563660 -32.848860 -20.998001 148.302935 -46.340990 -154.535228 4.790022 -8.426050 -17.560263 -10.232260 1.267659 -0.741585 9.962079 -4.008290 1.516529 -96.873562 -46.481572 104.576772 2.867844 -18.677291 8.442050 -2.865409 -47.646378 14.581326 -117.571582 82.082249 -105.691614 0.502057 -15.232426 -4.781596 -0.311558 1.044612 -0.175576 -7.539640 -52.045815 20.656810 -157.707448 80.994088 -165.459169 -1.001199 -15.232829 8.695583 -0.183455 -0.421515 -0.125325
-4.021639 50.052767 27.769954 170.111384 -32.106176 -7.360110 0.562206 20.679438 4.595994 -0.006047 2.685986 0.449461 0.001007 4.389557 0.735061 0.361070 17.653732 3.035293 2.908527 20.822869 0.911109 5.018049 2.886204 0.813444 1.643622 -3.022293 -9.190847 14.105023 -32.912484 -20.807620 148.609198 -45.419315 -155.130501 4.801248 -8.656006 -17.700960 -10.359263 1.222691 -0.669099 9.730652 -4.205182 1.521059 -97.118116 -46.595867 104.751608 2.976193 -18.797814 8.397261 -2.922579 -47.612581 14.694451 -117.411967 82.118443 -105.522078 0.534776 -15.216190 -4.841270 -0.308887 1.050047 -0.176526 -7.540356 -52.040962 20.754446 -157.587217 80.959152 -165.294724 -0.937535 -15.248280 8.653281 -0.171073 -0.425797 -0.122518
-4.015002 50.050327 27.777548 170.001565 -32.118312 -7.378994 0.810179 20.723699 4.693032 0.021627 2.698480 0.452042 0.046393 4.408838 0.739740 0.549629 17.682624 3.069193 2.735933 20.875170 0.863984 4.717815 2.981740 0.779271 1.603006 -3.037313 -9.182791 13.666174 -32.954941 -20.601682 148.822092 -44.499597 -155.647240 4.836901 -8.892749 -17.897918 -10.483022 1.172965 -0.593570 9.463456 -4.453844 1.537936 -97.375002 -46.779909 104.892375 3.095665 -18.933189 8.317124 -2.953683 -47.594578 14.798194 -117.235782 82.134685 -105.307966 0.510354 -15.203540 -4.912416 -0.253660 1.053805 -0.150480 -7.556359 -52.041780 20.847810 -157.592826 80.934649 -165.260123 -0.866352 -15.265130 8.616190 -0.186561 -0.425272 -0.117729
-4.007127 50.046385 27.784384 169.876088 -32.135118 -7.376614 1.082310 20.765066 4.786185 0.051775 2.714361 0.455441 0.095697 4.433301 0.745793 0.753769 17.718597 3.108226 2.551259 20.925473 0.818899 4.395191 3.073369 0.752012 1.578009 -3.044943 -9.164793 13.246605 -32.995966 -20.386433 148.945492 -43.593403 -156.077318 4.890555 -9.135312 -18.152663 -10.599160 1.128532 -0.515806 9.151213 -4.762396 1.560589 -97.626919 -47.001026 104.997243 3.232634 -19.045345 8.217818 -3.021633 -47.557181 14.892897 -117.124767 82.186983 -105.188873 0.543364 -15.196618 -4.973812 -0.250760 1.064597 -0.163041 -7.552810 -52.041562 20.923036 -157.546416 80.903376 -165.173983 -0.784273 -15.273321 8.584570 -0.191302 -0.437782 -0.142816
-3.995900 50.041217 27.790616 169.749452 -32.157642 -7.371348 1.376122 20.809563 4.889528 0.084546 2.732739 0.459692 0.149382 4.461515 0.753347 0.974565 17.758672 3.153423 2.350264 20.979015 0.780628 4.040958 3.170671 0.741736 1.550585 -3.042785 -9.132049 12.850911 -33.050008 -20.168133 149.001789 -42.718356 -156.433641 4.952567 -9.379871 -18.436387 -10.719618 1.096600 -0.433444 8.797078 -5.135709 1.581625 -97.859969 -47.224059 105.071509 3.378505 -19.120687 8.124299 -3.091013 -47.513837 14.981325 -117.045844 82.239844 -105.094531 0.583989 -15.188510 -5.047043 -0.248241 1.071579 -0.172925 -7.567971 -52.034728 21.007918 -157.428890 80.864204 -165.023924 -0.680814 -15.279026 8.541680 -0.196771 -0.452539 -0.154016
-3.983308 50.033879 27.796950 169.637201 -32.176376 -7.360020 1.675971 20.855512 4.991100 0.119774 2.753330 0.464863 0.207209 4.493017 0.762370 1.210518 17.801746 3.204706 2.131455 21.037642 0.752177 3.651674 3.277296 0.754188 1.516409 -3.036742 -9.082352 12.488673 -33.117140 -19.954479 149.010087 -41.890447 -156.731593 5.014097 -9.617335 -18.715820 -10.848212 1.072381 -0.343396 8.404815 -5.572881 1.595869 -98.076781 -47.430604 105.126190 3.491069 -19.170004 8.069996 -3.139968 -47.477572 15.038819 -117.002720 82.285256 -105.014800 0.609146 -15.191172 -5.131664 -0.251733 1.077399 -0.151623 -7.653469 -52.023942 21.094657 -157.433061 80.830513 -165.015020 -0.547071 -15.274264 8.499370 -0.215978 -0.476598 -0.198655
-3.967703 50.024950 27.803407 169.547144 -32.194025 -7.357454 1.978580 20.909833 5.103195 0.156760 2.776411 0.470848 0.267818 4.528303 0.772711 1.455587 17.848582 3.260413 1.899157 21.099368 0.733747 3.235239 3.389832 0.788392 1.484351 -3.033311 -9.016717 12.173324 -33.188470 -19.758019 148.991145 -41.127543 -156.989686 5.079418 -9.838350 -18.958847 -10.976942 1.049896 -0.246292 7.976262 -6.067060 1.602298 -98.291133 -47.606218 105.178612 3.554128 -19.217096 8.083978 -3.204200 -47.439071 15.085843 -117.008790 82.338377 -104.975941 0.636263 -15.193758 -5.217373 -0.237468 1.083699 -0.154347 -7.714322 -52.020263 21.166527 -157.354331 80.791789 -164.906463 -0.430452 -15.282819 8.427309 -0.232955 -0.478228 -0.176109
